<svg xmlns="http://www.w3.org/2000/svg" viewBox="0 0 1280 320" width="1280" height="320" role="img" aria-label="slskd-transform: compact disc"><title>slskd-transform: compact disc</title><rect width="1280" height="320" rx="18" fill="#0e1016"/><path fill="#fff" d="M93.1 138.6l-10.8 0q.2 4.1 1.9 6.9 1.7 2.7 4.4 4.4 2.7 1.7 6.1 2.4 3.5 .7 7.1 .7 3.5 0 6.9-.6 3.4-.7 6-2.4 2.7-1.7 4.3-4.4 1.6-2.8 1.6-6.9 0-2.9-1.1-4.8-1.1-2-2.9-3.3-1.9-1.3-4.2-2.1-2.4-.8-4.9-1.4-2.4-.5-4.7-1-2.3-.5-4.1-1.1-1.8-.6-2.9-1.6-1.2-.9-1.2-2.4 0-1.3 .7-2.1 .6-.7 1.5-1.1 1-.4 2.1-.6 1.1-.1 2.1-.1 3 0 5.2 1.2 2.3 1.1 2.5 4.4l10.8 0q-.3-3.8-1.9-6.3-1.7-2.6-4.2-4.1-2.4-1.5-5.6-2.1-3.2-.7-6.5-.7-3.4 0-6.6 .6-3.2 .6-5.7 2.1-2.6 1.5-4.2 4-1.5 2.6-1.5 6.6 0 2.7 1.1 4.6 1.1 1.9 3 3.1 1.8 1.3 4.2 2 2.3 .8 4.8 1.3 6.1 1.3 9.5 2.6 3.4 1.3 3.4 3.8 0 1.6-.7 2.6-.8 1-1.8 1.6-1.1 .6-2.4 .8-1.4 .3-2.6 .3-1.6 0-3.2-.4-1.6-.4-2.8-1.2-1.2-.9-1.9-2.2-.8-1.3-.8-3.1zm34.5-43.7l0 57.1 11.4 0 0-57.1zm29.1 43.7l-10.8 0q.2 4.1 1.9 6.9 1.7 2.7 4.4 4.4 2.7 1.7 6.1 2.4 3.5 .7 7.1 .7 3.5 0 6.9-.6 3.4-.7 6-2.4 2.7-1.7 4.3-4.4 1.6-2.8 1.6-6.9 0-2.9-1.1-4.8-1.1-2-2.9-3.3-1.9-1.3-4.2-2.1-2.4-.8-4.9-1.4-2.4-.5-4.7-1-2.3-.5-4.1-1.1-1.8-.6-2.9-1.6-1.2-.9-1.2-2.4 0-1.3 .7-2.1 .6-.7 1.5-1.1 1-.4 2.1-.6 1.1-.1 2.1-.1 3 0 5.2 1.2 2.3 1.1 2.5 4.4l10.8 0q-.3-3.8-1.9-6.3-1.7-2.6-4.2-4.1-2.4-1.5-5.6-2.1-3.2-.7-6.5-.7-3.4 0-6.6 .6-3.2 .6-5.7 2.1-2.6 1.5-4.2 4-1.5 2.6-1.5 6.6 0 2.7 1.1 4.6 1.1 1.9 3 3.1 1.8 1.3 4.2 2 2.3 .8 4.8 1.3 6.1 1.3 9.5 2.6 3.4 1.3 3.4 3.8 0 1.6-.7 2.6-.8 1-1.8 1.6-1.1 .6-2.4 .8-1.4 .3-2.6 .3-1.6 0-3.2-.4-1.6-.4-2.8-1.2-1.2-.9-1.9-2.2-.8-1.3-.8-3.1zm35.2-43.7l0 57.1 11.4 0 0-14.2 4.4-4.3 11.3 18.5 13.8 0-17.4-26.2 15.6-15.2-13.4 0-14.3 14.9 0-30.6zm74.3 36.3q0 2.6-.5 5-.5 2.4-1.6 4.2-1.1 1.9-3 3-1.9 1.2-4.7 1.2-2.6 0-4.5-1.2-1.9-1.2-3.1-3-1.3-1.9-1.8-4.3-.6-2.4-.6-4.8 0-2.6 .5-4.9 .5-2.4 1.7-4.2 1.2-1.9 3.1-3 1.9-1.1 4.7-1.1 2.8 0 4.6 1.1 1.9 1.1 3 2.9 1.2 1.8 1.7 4.2 .5 2.3 .5 4.9zm.1 15.5l0 5.3 10.8 0 0-57.1-11.3 0 0 20.8-.2 0q-1.9-3.1-5.2-4.6-3.4-1.6-7-1.6-4.6 0-8 1.8-3.5 1.8-5.8 4.8-2.2 2.9-3.4 6.8-1.2 3.9-1.2 8.1 0 4.3 1.2 8.3 1.2 4 3.4 7.1 2.3 3 5.8 4.8 3.6 1.8 8.2 1.8 4.1 0 7.3-1.4 3.3-1.5 5.3-4.9zm19.3-21.4l0 9.7 24.1 0 0-9.7zm47-14.7l0-12.4-11.3 0 0 12.4-6.9 0 0 7.6 6.9 0 0 24.4q0 3.2 1 5.1 1.1 1.9 2.9 2.9 1.8 1.1 4.1 1.4 2.4 .4 5 .4 1.7 0 3.5-.1 1.7-.1 3.2-.3l0-8.8q-.8 .2-1.7 .2-.9 .1-1.9 .1-2.8 0-3.8-.9-1-1-1-3.9l0-20.5 8.4 0 0-7.6zm13.8 0l0 41.4 11.4 0 0-18.6q0-2.8 .5-5.2 .6-2.4 1.9-4.2 1.3-1.8 3.5-2.9 2.1-1 5.3-1 1 0 2.1 .1 1.1 .1 1.9 .3l0-10.6q-1.3-.4-2.4-.4-2.2 0-4.2 .7-2 .6-3.8 1.8-1.7 1.1-3.1 2.8-1.3 1.6-2.1 3.5l-.2 0 0-7.7zm30.6 12.8q.3-4 2-6.7 1.8-2.6 4.5-4.2 2.7-1.6 6.1-2.3 3.4-.7 6.9-.7 3.1 0 6.3 .5 3.2 .4 5.8 1.7 2.7 1.3 4.4 3.5 1.6 2.3 1.6 6.1l0 21.5q0 2.8 .4 5.4 .3 2.5 1.1 3.8l-11.5 0q-.4-1-.6-2-.2-1-.2-2-2.8 2.8-6.4 3.9-3.7 1.1-7.6 1.1-2.9 0-5.5-.7-2.5-.7-4.5-2.2-1.9-1.5-3-3.9-1-2.3-1-5.5 0-3.5 1.2-5.8 1.2-2.3 3.2-3.6 2-1.4 4.5-2.1 2.5-.6 5.1-1 2.5-.4 5-.7 2.5-.2 4.4-.7 1.9-.5 3-1.4 1.2-.9 1.1-2.7 0-1.8-.6-2.9-.6-1.1-1.6-1.7-1-.6-2.3-.8-1.4-.2-2.9-.2-3.3 0-5.3 1.5-1.9 1.4-2.2 4.8zm26.3 8.4q-.7 .6-1.8 1-1.1 .3-2.3 .6-1.3 .2-2.6 .4-1.4 .1-2.8 .4-1.2 .2-2.5 .6-1.2 .4-2.1 1.1-1 .7-1.5 1.7-.6 1-.6 2.6 0 1.6 .6 2.6 .5 1 1.5 1.6 1 .6 2.2 .9 1.3 .2 2.7 .2 3.3 0 5.2-1.1 1.8-1.1 2.7-2.7 .9-1.5 1.1-3.1 .2-1.6 .2-2.6zm20.1-21.2l0 41.4 11.4 0 0-21.7q0-6.3 2.1-9.1 2.1-2.7 6.7-2.7 4.1 0 5.7 2.5 1.6 2.5 1.6 7.6l0 23.4 11.3 0 0-25.4q0-3.9-.6-7-.7-3.2-2.4-5.4-1.7-2.2-4.6-3.4-2.9-1.3-7.5-1.3-3.6 0-7 1.7-3.5 1.6-5.6 5.2l-.3 0 0-5.8zm56.3 28l-10.8 0q.1 4.1 1.9 6.9 1.7 2.7 4.4 4.4 2.6 1.7 6.1 2.4 3.4 .7 7 .7 3.5 0 6.9-.6 3.4-.7 6.1-2.4 2.6-1.7 4.3-4.4 1.6-2.8 1.6-6.9 0-2.9-1.1-4.8-1.1-2-3-3.3-1.8-1.3-4.2-2.1-2.3-.8-4.8-1.4-2.4-.5-4.7-1-2.4-.5-4.2-1.1-1.8-.6-2.9-1.6-1.1-.9-1.1-2.4 0-1.3 .6-2.1 .7-.7 1.6-1.1 .9-.4 2-.6 1.2-.1 2.1-.1 3.1 0 5.3 1.2 2.2 1.1 2.5 4.4l10.8 0q-.3-3.8-2-6.3-1.6-2.6-4.1-4.1-2.5-1.5-5.6-2.1-3.2-.7-6.6-.7-3.3 0-6.5 .6-3.2 .6-5.8 2.1-2.5 1.5-4.1 4-1.6 2.6-1.6 6.6 0 2.7 1.2 4.6 1.1 1.9 2.9 3.1 1.9 1.3 4.2 2 2.4 .8 4.9 1.3 6 1.3 9.4 2.6 3.4 1.3 3.4 3.8 0 1.6-.7 2.6-.7 1-1.8 1.6-1.1 .6-2.4 .8-1.3 .3-2.5 .3-1.7 0-3.2-.4-1.6-.4-2.8-1.2-1.2-.9-2-2.2-.7-1.3-.7-3.1zm36.6-20.4l0 33.8 11.4 0 0-33.8 7.8 0 0-7.6-7.8 0 0-2.4q0-2.6 1-3.7 1-1.1 3.3-1.1 2.2 0 4.2 .3l0-8.5q-1.5-.1-3-.2-1.5-.1-3-.1-7 0-10.4 3.5-3.5 3.5-3.5 9l0 3.2-6.8 0 0 7.6zm34.3 13.2q0-2.5 .4-4.9 .5-2.4 1.7-4.3 1.1-1.8 3.1-3 1.9-1.1 4.8-1.1 2.8 0 4.8 1.1 2 1.2 3.1 3 1.2 1.9 1.7 4.3 .4 2.4 .4 4.9 0 2.4-.4 4.8-.5 2.4-1.7 4.2-1.1 1.9-3.1 3-2 1.2-4.8 1.2-2.9 0-4.8-1.2-2-1.1-3.1-3-1.2-1.8-1.7-4.2-.4-2.4-.4-4.8zm-11.4 0q0 4.9 1.5 8.9 1.5 4 4.3 6.9 2.8 2.8 6.8 4.3 3.9 1.5 8.8 1.5 4.8 0 8.8-1.5 4-1.5 6.8-4.3 2.8-2.9 4.3-6.9 1.5-4 1.5-8.9 0-5-1.5-9-1.5-4.1-4.3-6.9-2.8-2.9-6.8-4.4-4-1.6-8.8-1.6-4.9 0-8.8 1.6-4 1.5-6.8 4.4-2.8 2.8-4.3 6.9-1.5 4-1.5 9zm50.2-20.8l0 41.4 11.3 0 0-18.6q0-2.8 .6-5.2 .5-2.4 1.9-4.2 1.3-1.8 3.4-2.9 2.2-1 5.3-1 1.1 0 2.2 .1 1.1 .1 1.9 .3l0-10.6q-1.4-.4-2.5-.4-2.1 0-4.1 .7-2 .6-3.8 1.8-1.8 1.1-3.1 2.8-1.4 1.6-2.2 3.5l-.1 0 0-7.7zm31.4 0l0 41.4 11.4 0 0-24q0-3 .8-4.9 .9-1.9 2.2-2.9 1.2-1 2.5-1.4 1.3-.3 2.1-.3 2.8 0 4.2 .9 1.4 .9 2 2.4 .6 1.6 .6 3.4 .1 1.8 .1 3.6l0 23.2 11.4 0 0-23q0-2 .3-3.8 .2-1.9 1.1-3.4 .8-1.5 2.3-2.4 1.5-.9 3.9-.9 2.4 0 3.8 .8 1.4 .8 2.1 2.1 .7 1.4 .9 3.2 .1 1.9 .1 4l0 23.4 11.4 0 0-27.7q0-4-1.1-6.8-1.1-2.9-3.1-4.6-2-1.8-4.8-2.6-2.8-.8-6.1-.8-4.3 0-7.5 2.1-3.2 2.1-5 4.8-1.7-3.8-4.9-5.4-3.3-1.5-7.2-1.5-4.1 0-7.2 1.8-3.2 1.7-5.4 4.9l-.2 0 0-5.6z"/><path fill="#a9b0c4" d="M96.7 193.4q-.2-.9-.6-1.7-.4-.8-1.1-1.4-.7-.5-1.5-.9-.9-.3-2.1-.3-1.7 0-3 .7-1.2 .7-2 1.9-.8 1.1-1.1 2.6-.4 1.5-.4 3 0 1.5 .4 3 .3 1.5 1.1 2.6 .8 1.2 2 1.9 1.3 .6 3 .6 1.3 0 2.2-.4 1-.4 1.7-1.2 .7-.8 1.1-1.8 .3-1 .5-2.2l3.6 0q-.1 2-.8 3.6-.7 1.5-1.9 2.7-1.2 1.1-2.8 1.8-1.6 .6-3.6 .6-2.4 0-4.3-.9-1.9-.9-3.2-2.4-1.3-1.5-2.1-3.6-.7-2-.7-4.3 0-2.3 .7-4.3 .8-2.1 2.1-3.6 1.3-1.5 3.2-2.4 1.9-.9 4.3-.9 1.8 0 3.4 .5 1.6 .5 2.8 1.4 1.2 1 2 2.3 .7 1.3 .9 3.1zm7.2-6.8l8.9 0q2.5 0 4.3 .8 1.8 .9 2.9 2.3 1.2 1.5 1.7 3.4 .6 2 .6 4.2 0 2.2-.6 4.2-.5 1.9-1.7 3.4-1.1 1.4-2.9 2.3-1.8 .8-4.3 .8l-8.9 0zm3.8 18.3l3.7 0q2.2 0 3.6-.5 1.4-.6 2.2-1.7 .8-1 1-2.4 .3-1.4 .3-3 0-1.6-.3-3-.2-1.4-1-2.5-.8-1-2.2-1.6-1.4-.6-3.6-.6l-3.7 0zm40.4 8.8l-3.5 0 0-7.7 0 0q-.4 .6-1 1.1-.6 .5-1.3 .7-.7 .4-1.4 .5-.7 .1-1.5 .1-1.7 0-3-.7-1.2-.6-2.1-1.8-.8-1.1-1.2-2.5-.4-1.5-.4-3.1 0-1.7 .5-3.2 .4-1.5 1.3-2.6 .9-1.1 2.3-1.8 1.3-.6 3.2-.6 1.5 0 2.8 .6 1.2 .5 2 1.9l0 0 0-2.1 3.3 0zm-12-13.4q0 1 .3 2 .2 .9 .7 1.7 .5 .8 1.3 1.2 .8 .5 2 .5 2.2 0 3.3-1.5 1.1-1.5 1.1-3.9 0-2.6-1.1-4.1-1.1-1.4-3.3-1.4-1 0-1.8 .4-.8 .5-1.4 1.3-.5 .7-.8 1.7-.3 1-.3 2.1zm29.3 7.7l-3.4 0 0-2.2 0 0q-.6 1.2-1.9 1.9-1.2 .7-2.5 .7-3.1 0-4.4-1.5-1.4-1.5-1.4-4.6l0-9.8 3.4 0 0 9.5q0 2 .8 2.9 .8 .8 2.2 .8 1.1 0 1.8-.3 .7-.3 1.2-.9 .4-.5 .6-1.3 .2-.8 .2-1.7l0-9 3.4 0zm16.6-3.4q0 .6 .2 .8 .1 .3 .6 .3 .2 0 .4 0 .2 0 .4 0l0 2.3q-.1 .1-.4 .2-.3 0-.6 .1-.3 .1-.6 .1-.3 0-.5 0-1.1 0-1.7-.4-.7-.4-1-1.5-1 1-2.5 1.5-1.4 .4-2.8 .4-1.1 0-2-.3-1-.3-1.7-.8-.8-.6-1.2-1.4-.4-.9-.4-2 0-1.5 .5-2.3 .5-1 1.4-1.5 .8-.5 1.9-.7 1.1-.2 2.1-.3 1-.2 1.8-.3 .9-.1 1.5-.2 .6-.2 1-.6 .4-.4 .4-1.1 0-.7-.3-1.1-.3-.4-.8-.7-.5-.2-1-.3-.6 0-1.1 0-1.5 0-2.4 .6-.9 .6-1 1.8l-3.5 0q.1-1.5 .8-2.5 .6-.9 1.6-1.5 .9-.6 2.2-.9 1.2-.2 2.5-.2 1.1 0 2.2 .2 1.2 .3 2 .8 .9 .5 1.5 1.4 .5 .8 .5 2.1zm-3.4-4.4q-.8 .5-1.9 .6-1.2 .2-2.3 .4-.6 0-1.1 .2-.5 .2-.9 .5-.4 .3-.6 .7-.2 .5-.2 1.1 0 .6 .3 1 .3 .4 .8 .6 .5 .2 1 .3 .6 .1 1 .1 .6 0 1.3-.1 .6-.2 1.2-.5 .6-.4 1-1 .4-.5 .4-1.3zm7.2-13.6l3.4 0 0 21.4-3.4 0zm7.2 0l3.4 0 0 3.2-3.4 0zm0 5.9l3.4 0 0 15.5-3.4 0zm5.6 0l2.6 0 0-4.7 3.4 0 0 4.7 3.1 0 0 2.5-3.1 0 0 8.3q0 .6 0 .9 .1 .4 .2 .7 .2 .3 .5 .4 .4 .1 .9 .1 .4 0 .8 0 .3 0 .7-.1l0 2.7q-.6 0-1.1 .1-.6 .1-1.1 .1-1.4 0-2.2-.3-.8-.3-1.3-.8-.5-.5-.6-1.2-.2-.7-.2-1.7l0-9.2-2.6 0zm9.8 0l3.8 0 4 11.6 .1 0 3.9-11.6 3.6 0-6 16.3q-.5 1.1-.9 2-.4 1-1 1.7-.5 .8-1.4 1.2-.9 .5-2.2 .5-1.2 0-2.4-.2l0-2.9q.4 .1 .8 .1 .4 .1 .8 .1 .6 0 1-.1 .4-.2 .7-.5 .2-.3 .4-.7 .2-.4 .3-.9l.4-1.2zm24.1 0l2.6 0 0-1.3q0-1.5 .3-2.4 .4-.9 1-1.4 .6-.5 1.4-.7 .7-.1 1.6-.1 1.6 0 2.4 .2l0 2.7q-.4-.1-.7-.2-.4 0-.9 0-.7 0-1.2 .3-.5 .3-.5 1.3l0 1.6 2.9 0 0 2.5-2.9 0 0 13-3.4 0 0-13-2.6 0zm18.1 15.9q-1.8 0-3.3-.6-1.5-.6-2.5-1.7-1-1.1-1.5-2.6-.5-1.5-.5-3.3 0-1.7 .5-3.2 .5-1.5 1.5-2.6 1-1.1 2.5-1.7 1.5-.6 3.3-.6 1.9 0 3.3 .6 1.5 .6 2.5 1.7 1 1.1 1.5 2.6 .5 1.5 .5 3.2 0 1.8-.5 3.3-.5 1.5-1.5 2.6-1 1.1-2.5 1.7-1.4 .6-3.3 .6zm0-2.7q1.2 0 2-.5 .8-.4 1.4-1.2 .5-.8 .8-1.8 .2-1 .2-2 0-1-.2-2-.3-.9-.8-1.7-.6-.8-1.4-1.3-.8-.4-2-.4-1.1 0-2 .4-.8 .5-1.4 1.3-.5 .8-.7 1.7-.3 1-.3 2 0 1 .3 2 .2 1 .7 1.8 .6 .8 1.4 1.2 .9 .5 2 .5zm10.7-13.2l3.2 0 0 3 .1 0q.1-.6 .5-1.2 .5-.6 1.1-1.1 .6-.5 1.4-.8 .7-.3 1.5-.3 .6 0 .8 0 .2 0 .5 .1l0 3.3q-.4-.1-.8-.1-.3-.1-.7-.1-.9 0-1.6 .4-.8 .3-1.4 1-.5 .7-.9 1.6-.3 1-.3 2.3l0 7.4-3.4 0zm29.5 6.4q0-.8-.3-1.6-.3-.7-.8-1.3-.5-.5-1.2-.9-.7-.3-1.6-.3-.9 0-1.6 .3-.7 .3-1.3 .9-.5 .5-.8 1.3-.3 .7-.3 1.6zm-7.9 2.2q0 .9 .2 1.8 .3 .8 .8 1.4 .5 .7 1.3 1 .8 .4 1.8 .4 1.5 0 2.4-.6 1-.7 1.4-2l3.2 0q-.2 1.3-.9 2.3-.6 1-1.6 1.7-.9 .6-2.1 1-1.1 .3-2.4 .3-1.8 0-3.2-.6-1.4-.6-2.4-1.7-1-1-1.5-2.5-.5-1.5-.5-3.3 0-1.7 .6-3.2 .5-1.5 1.5-2.6 .9-1.1 2.3-1.8 1.4-.6 3.1-.6 1.9 0 3.3 .7 1.5 .8 2.4 2.1 1 1.2 1.4 2.9 .5 1.6 .3 3.3zm12.4-8.6l3.8 0 3.9 11.9 0 0 3.8-11.9 3.6 0-5.6 15.5-3.8 0zm27.8 6.4q-.1-.8-.4-1.6-.2-.7-.7-1.3-.5-.5-1.2-.9-.7-.3-1.6-.3-.9 0-1.6 .3-.8 .3-1.3 .9-.5 .5-.8 1.3-.4 .7-.4 1.6zm-8 2.2q0 .9 .3 1.8 .2 .8 .7 1.4 .5 .7 1.3 1 .8 .4 1.9 .4 1.5 0 2.4-.6 .9-.7 1.4-2l3.2 0q-.3 1.3-.9 2.3-.7 1-1.6 1.7-1 .6-2.1 1-1.2 .3-2.4 .3-1.9 0-3.3-.6-1.4-.6-2.3-1.7-1-1-1.5-2.5-.5-1.5-.5-3.3 0-1.7 .5-3.2 .5-1.5 1.5-2.6 1-1.1 2.4-1.8 1.3-.6 3.1-.6 1.8 0 3.3 .7 1.4 .8 2.4 2.1 .9 1.2 1.4 2.9 .4 1.6 .2 3.3zm14-8.6l3.2 0 0 3 .1 0q.1-.6 .6-1.2 .4-.6 1-1.1 .6-.5 1.4-.8 .7-.3 1.5-.3 .6 0 .8 0 .3 0 .5 .1l0 3.3q-.4-.1-.7-.1-.4-.1-.8-.1-.8 0-1.6 .4-.8 .3-1.3 1-.6 .7-.9 1.6-.4 1-.4 2.3l0 7.4-3.4 0zm8.9 0l3.7 0 4.1 11.6 0 0 4-11.6 3.5 0-6 16.3q-.4 1.1-.8 2-.4 1-1 1.7-.6 .8-1.5 1.2-.8 .5-2.2 .5-1.2 0-2.4-.2l0-2.9q.5 .1 .8 .1 .4 .1 .9 .1 .6 0 .9-.1 .4-.2 .7-.5 .3-.3 .4-.7 .2-.4 .4-.9l.3-1.2zm24 0l2.6 0 0-4.7 3.4 0 0 4.7 3.1 0 0 2.5-3.1 0 0 8.3q0 .6 .1 .9 0 .4 .2 .7 .1 .3 .5 .4 .3 .1 .9 .1 .3 0 .7 0 .4 0 .7-.1l0 2.7q-.6 0-1.1 .1-.5 .1-1.1 .1-1.4 0-2.2-.3-.8-.3-1.3-.8-.4-.5-.6-1.2-.2-.7-.2-1.7l0-9.2-2.6 0zm11.6 0l3.2 0 0 3 0 0q.2-.6 .6-1.2 .5-.6 1.1-1.1 .6-.5 1.3-.8 .8-.3 1.6-.3 .6 0 .8 0 .2 0 .5 .1l0 3.3q-.4-.1-.8-.1-.3-.1-.7-.1-.9 0-1.6 .4-.8 .3-1.4 1-.5 .7-.9 1.6-.3 1-.3 2.3l0 7.4-3.4 0zm23.5 12.1q0 .6 .2 .8 .2 .3 .6 .3 .2 0 .4 0 .2 0 .5 0l0 2.3q-.2 .1-.5 .2-.3 0-.6 .1-.3 .1-.6 .1-.3 0-.5 0-1 0-1.7-.4-.7-.4-.9-1.5-1 1-2.5 1.5-1.5 .4-2.9 .4-1 0-2-.3-1-.3-1.7-.8-.7-.6-1.2-1.4-.4-.9-.4-2 0-1.5 .5-2.3 .5-1 1.4-1.5 .9-.5 1.9-.7 1.1-.2 2.2-.3 .9-.2 1.7-.3 .9-.1 1.5-.2 .7-.2 1-.6 .4-.4 .4-1.1 0-.7-.3-1.1-.3-.4-.8-.7-.4-.2-1-.3-.6 0-1.1 0-1.4 0-2.4 .6-.9 .6-1 1.8l-3.4 0q.1-1.5 .7-2.5 .6-.9 1.6-1.5 1-.6 2.2-.9 1.2-.2 2.5-.2 1.2 0 2.3 .2 1.1 .3 2 .8 .8 .5 1.4 1.4 .5 .8 .5 2.1zm-3.4-4.4q-.8 .5-1.9 .6-1.2 .2-2.3 .4-.5 0-1 .2-.5 .2-.9 .5-.4 .3-.7 .7-.2 .5-.2 1.1 0 .6 .3 1 .4 .4 .8 .6 .5 .2 1.1 .3 .5 .1 1 .1 .5 0 1.2-.1 .7-.2 1.2-.5 .6-.4 1-1 .4-.5 .4-1.3zm17.6-2.5q-.2-1.5-1.2-2.2-.9-.7-2.3-.7-.7 0-1.5 .2-.7 .2-1.3 .8-.7 .6-1.1 1.7-.4 1.1-.4 2.9 0 1 .2 1.9 .2 1 .7 1.7 .5 .8 1.3 1.3 .8 .4 1.9 .4 1.5 0 2.5-.9 .9-.9 1.2-2.6l3.4 0q-.5 3-2.3 4.6-1.8 1.6-4.8 1.6-1.8 0-3.2-.6-1.4-.6-2.4-1.7-.9-1-1.4-2.5-.5-1.5-.5-3.2 0-1.7 .4-3.3 .5-1.5 1.5-2.6 1-1.1 2.4-1.8 1.4-.6 3.3-.6 1.4 0 2.6 .3 1.2 .4 2.1 1 1 .7 1.6 1.8 .6 1 .7 2.5zm6.3-11.1l3.4 0 0 12.2 6.2-6.3 4.2 0-6 5.7 6.6 9.8-4.2 0-4.8-7.5-2 1.9 0 5.6-3.4 0zm22.6 5.9l3.8 0 4 11.6 .1 0 3.9-11.6 3.6 0-6 16.3q-.4 1.1-.9 2-.4 1-.9 1.7-.6 .8-1.5 1.2-.9 .5-2.2 .5-1.2 0-2.4-.2l0-2.9q.4 .1 .8 .1 .4 .1 .8 .1 .6 0 1-.1 .4-.2 .7-.5 .2-.3 .4-.7 .2-.4 .3-.9l.4-1.2zm24.4 15.9q-1.8 0-3.3-.6-1.4-.6-2.4-1.7-1.1-1.1-1.6-2.6-.5-1.5-.5-3.3 0-1.7 .5-3.2 .5-1.5 1.6-2.6 1-1.1 2.4-1.7 1.5-.6 3.3-.6 1.9 0 3.3 .6 1.5 .6 2.5 1.7 1 1.1 1.5 2.6 .6 1.5 .6 3.2 0 1.8-.6 3.3-.5 1.5-1.5 2.6-1 1.1-2.5 1.7-1.4 .6-3.3 .6zm0-2.7q1.2 0 2-.5 .8-.4 1.4-1.2 .5-.8 .8-1.8 .2-1 .2-2 0-1-.2-2-.3-.9-.8-1.7-.6-.8-1.4-1.3-.8-.4-2-.4-1.1 0-2 .4-.8 .5-1.3 1.3-.6 .8-.8 1.7-.3 1-.3 2 0 1 .3 2 .2 1 .8 1.8 .5 .8 1.3 1.2 .9 .5 2 .5zm24.3 2.3l-3.3 0 0-2.2-.1 0q-.6 1.2-1.9 1.9-1.2 .7-2.5 .7-3.1 0-4.4-1.5-1.4-1.5-1.4-4.6l0-9.8 3.4 0 0 9.5q0 2 .8 2.9 .8 .8 2.2 .8 1.1 0 1.8-.3 .7-.3 1.2-.9 .4-.5 .6-1.3 .2-.8 .2-1.7l0-9 3.4 0zm19.1 .4q-1.9 0-3.3-.6-1.5-.6-2.5-1.7-1-1.1-1.5-2.6-.5-1.5-.5-3.3 0-1.7 .5-3.2 .5-1.5 1.5-2.6 1-1.1 2.5-1.7 1.4-.6 3.3-.6 1.8 0 3.3 .6 1.5 .6 2.5 1.7 1 1.1 1.5 2.6 .5 1.5 .5 3.2 0 1.8-.5 3.3-.5 1.5-1.5 2.6-1 1.1-2.5 1.7-1.5 .6-3.3 .6zm0-2.7q1.1 0 2-.5 .8-.4 1.3-1.2 .6-.8 .8-1.8 .3-1 .3-2 0-1-.3-2-.2-.9-.8-1.7-.5-.8-1.3-1.3-.9-.4-2-.4-1.2 0-2 .4-.8 .5-1.4 1.3-.5 .8-.8 1.7-.2 1-.2 2 0 1 .2 2 .3 1 .8 1.8 .6 .8 1.4 1.2 .8 .5 2 .5zm9.2-13.2l3.7 0 3 11.6 .1 0 2.9-11.6 3.4 0 2.8 11.6 .1 0 3.1-11.6 3.5 0-4.8 15.5-3.6 0-2.8-11.5-.1 0-2.9 11.5-3.5 0zm24.8 0l3.2 0 0 2.3 .1 0q.8-1.3 2-2 1.3-.7 2.8-.7 2.6 0 4.1 1.3 1.4 1.3 1.4 4l0 10.6-3.4 0 0-9.8q-.1-1.8-.8-2.6-.7-.8-2.2-.8-.9 0-1.6 .3-.7 .3-1.2 .9-.4 .5-.7 1.3-.3 .7-.3 1.5l0 9.2-3.4 0zm17.5 11.5l4.2 0 0 4-4.2 0z"/><circle cx="1010" cy="160" r="136" fill="#d9dde6"/><circle cx="1010" cy="160" r="136" fill="#c9cfda"/><path d="M1010 160L1010.0 24.0A136 136 0 0 1 1027.8 25.2Z" fill="hsl(300,85%,72%)" stroke="hsl(300,85%,72%)" stroke-width="1" opacity=".42"/><path d="M1010 160L1027.8 25.2A136 136 0 0 1 1045.2 28.6Z" fill="hsl(315,85%,72%)" stroke="hsl(315,85%,72%)" stroke-width="1" opacity=".42"/><path d="M1010 160L1045.2 28.6A136 136 0 0 1 1062.0 34.4Z" fill="hsl(330,85%,72%)" stroke="hsl(330,85%,72%)" stroke-width="1" opacity=".42"/><path d="M1010 160L1062.0 34.4A136 136 0 0 1 1078.0 42.2Z" fill="hsl(345,85%,72%)" stroke="hsl(345,85%,72%)" stroke-width="1" opacity=".42"/><path d="M1010 160L1078.0 42.2A136 136 0 0 1 1092.8 52.1Z" fill="hsl(0,85%,72%)" stroke="hsl(0,85%,72%)" stroke-width="1" opacity=".42"/><path d="M1010 160L1092.8 52.1A136 136 0 0 1 1106.2 63.8Z" fill="hsl(15,85%,72%)" stroke="hsl(15,85%,72%)" stroke-width="1" opacity=".42"/><path d="M1010 160L1106.2 63.8A136 136 0 0 1 1117.9 77.2Z" fill="hsl(30,85%,72%)" stroke="hsl(30,85%,72%)" stroke-width="1" opacity=".42"/><path d="M1010 160L1117.9 77.2A136 136 0 0 1 1127.8 92.0Z" fill="hsl(45,85%,72%)" stroke="hsl(45,85%,72%)" stroke-width="1" opacity=".42"/><path d="M1010 160L1127.8 92.0A136 136 0 0 1 1135.6 108.0Z" fill="hsl(60,85%,72%)" stroke="hsl(60,85%,72%)" stroke-width="1" opacity=".42"/><path d="M1010 160L1135.6 108.0A136 136 0 0 1 1141.4 124.8Z" fill="hsl(75,85%,72%)" stroke="hsl(75,85%,72%)" stroke-width="1" opacity=".42"/><path d="M1010 160L1141.4 124.8A136 136 0 0 1 1144.8 142.2Z" fill="hsl(90,85%,72%)" stroke="hsl(90,85%,72%)" stroke-width="1" opacity=".42"/><path d="M1010 160L1144.8 142.2A136 136 0 0 1 1146.0 160.0Z" fill="hsl(105,85%,72%)" stroke="hsl(105,85%,72%)" stroke-width="1" opacity=".42"/><path d="M1010 160L1146.0 160.0A136 136 0 0 1 1144.8 177.8Z" fill="hsl(120,85%,72%)" stroke="hsl(120,85%,72%)" stroke-width="1" opacity=".42"/><path d="M1010 160L1144.8 177.8A136 136 0 0 1 1141.4 195.2Z" fill="hsl(135,85%,72%)" stroke="hsl(135,85%,72%)" stroke-width="1" opacity=".42"/><path d="M1010 160L1141.4 195.2A136 136 0 0 1 1135.6 212.0Z" fill="hsl(150,85%,72%)" stroke="hsl(150,85%,72%)" stroke-width="1" opacity=".42"/><path d="M1010 160L1135.6 212.0A136 136 0 0 1 1127.8 228.0Z" fill="hsl(165,85%,72%)" stroke="hsl(165,85%,72%)" stroke-width="1" opacity=".42"/><path d="M1010 160L1127.8 228.0A136 136 0 0 1 1117.9 242.8Z" fill="hsl(180,85%,72%)" stroke="hsl(180,85%,72%)" stroke-width="1" opacity=".42"/><path d="M1010 160L1117.9 242.8A136 136 0 0 1 1106.2 256.2Z" fill="hsl(195,85%,72%)" stroke="hsl(195,85%,72%)" stroke-width="1" opacity=".42"/><path d="M1010 160L1106.2 256.2A136 136 0 0 1 1092.8 267.9Z" fill="hsl(210,85%,72%)" stroke="hsl(210,85%,72%)" stroke-width="1" opacity=".42"/><path d="M1010 160L1092.8 267.9A136 136 0 0 1 1078.0 277.8Z" fill="hsl(225,85%,72%)" stroke="hsl(225,85%,72%)" stroke-width="1" opacity=".42"/><path d="M1010 160L1078.0 277.8A136 136 0 0 1 1062.0 285.6Z" fill="hsl(240,85%,72%)" stroke="hsl(240,85%,72%)" stroke-width="1" opacity=".42"/><path d="M1010 160L1062.0 285.6A136 136 0 0 1 1045.2 291.4Z" fill="hsl(255,85%,72%)" stroke="hsl(255,85%,72%)" stroke-width="1" opacity=".42"/><path d="M1010 160L1045.2 291.4A136 136 0 0 1 1027.8 294.8Z" fill="hsl(270,85%,72%)" stroke="hsl(270,85%,72%)" stroke-width="1" opacity=".42"/><path d="M1010 160L1027.8 294.8A136 136 0 0 1 1010.0 296.0Z" fill="hsl(285,85%,72%)" stroke="hsl(285,85%,72%)" stroke-width="1" opacity=".42"/><path d="M1010 160L1010.0 296.0A136 136 0 0 1 992.2 294.8Z" fill="hsl(300,85%,72%)" stroke="hsl(300,85%,72%)" stroke-width="1" opacity=".42"/><path d="M1010 160L992.2 294.8A136 136 0 0 1 974.8 291.4Z" fill="hsl(315,85%,72%)" stroke="hsl(315,85%,72%)" stroke-width="1" opacity=".42"/><path d="M1010 160L974.8 291.4A136 136 0 0 1 958.0 285.6Z" fill="hsl(330,85%,72%)" stroke="hsl(330,85%,72%)" stroke-width="1" opacity=".42"/><path d="M1010 160L958.0 285.6A136 136 0 0 1 942.0 277.8Z" fill="hsl(345,85%,72%)" stroke="hsl(345,85%,72%)" stroke-width="1" opacity=".42"/><path d="M1010 160L942.0 277.8A136 136 0 0 1 927.2 267.9Z" fill="hsl(0,85%,72%)" stroke="hsl(0,85%,72%)" stroke-width="1" opacity=".42"/><path d="M1010 160L927.2 267.9A136 136 0 0 1 913.8 256.2Z" fill="hsl(15,85%,72%)" stroke="hsl(15,85%,72%)" stroke-width="1" opacity=".42"/><path d="M1010 160L913.8 256.2A136 136 0 0 1 902.1 242.8Z" fill="hsl(30,85%,72%)" stroke="hsl(30,85%,72%)" stroke-width="1" opacity=".42"/><path d="M1010 160L902.1 242.8A136 136 0 0 1 892.2 228.0Z" fill="hsl(45,85%,72%)" stroke="hsl(45,85%,72%)" stroke-width="1" opacity=".42"/><path d="M1010 160L892.2 228.0A136 136 0 0 1 884.4 212.0Z" fill="hsl(60,85%,72%)" stroke="hsl(60,85%,72%)" stroke-width="1" opacity=".42"/><path d="M1010 160L884.4 212.0A136 136 0 0 1 878.6 195.2Z" fill="hsl(75,85%,72%)" stroke="hsl(75,85%,72%)" stroke-width="1" opacity=".42"/><path d="M1010 160L878.6 195.2A136 136 0 0 1 875.2 177.8Z" fill="hsl(90,85%,72%)" stroke="hsl(90,85%,72%)" stroke-width="1" opacity=".42"/><path d="M1010 160L875.2 177.8A136 136 0 0 1 874.0 160.0Z" fill="hsl(105,85%,72%)" stroke="hsl(105,85%,72%)" stroke-width="1" opacity=".42"/><path d="M1010 160L874.0 160.0A136 136 0 0 1 875.2 142.2Z" fill="hsl(120,85%,72%)" stroke="hsl(120,85%,72%)" stroke-width="1" opacity=".42"/><path d="M1010 160L875.2 142.2A136 136 0 0 1 878.6 124.8Z" fill="hsl(135,85%,72%)" stroke="hsl(135,85%,72%)" stroke-width="1" opacity=".42"/><path d="M1010 160L878.6 124.8A136 136 0 0 1 884.4 108.0Z" fill="hsl(150,85%,72%)" stroke="hsl(150,85%,72%)" stroke-width="1" opacity=".42"/><path d="M1010 160L884.4 108.0A136 136 0 0 1 892.2 92.0Z" fill="hsl(165,85%,72%)" stroke="hsl(165,85%,72%)" stroke-width="1" opacity=".42"/><path d="M1010 160L892.2 92.0A136 136 0 0 1 902.1 77.2Z" fill="hsl(180,85%,72%)" stroke="hsl(180,85%,72%)" stroke-width="1" opacity=".42"/><path d="M1010 160L902.1 77.2A136 136 0 0 1 913.8 63.8Z" fill="hsl(195,85%,72%)" stroke="hsl(195,85%,72%)" stroke-width="1" opacity=".42"/><path d="M1010 160L913.8 63.8A136 136 0 0 1 927.2 52.1Z" fill="hsl(210,85%,72%)" stroke="hsl(210,85%,72%)" stroke-width="1" opacity=".42"/><path d="M1010 160L927.2 52.1A136 136 0 0 1 942.0 42.2Z" fill="hsl(225,85%,72%)" stroke="hsl(225,85%,72%)" stroke-width="1" opacity=".42"/><path d="M1010 160L942.0 42.2A136 136 0 0 1 958.0 34.4Z" fill="hsl(240,85%,72%)" stroke="hsl(240,85%,72%)" stroke-width="1" opacity=".42"/><path d="M1010 160L958.0 34.4A136 136 0 0 1 974.8 28.6Z" fill="hsl(255,85%,72%)" stroke="hsl(255,85%,72%)" stroke-width="1" opacity=".42"/><path d="M1010 160L974.8 28.6A136 136 0 0 1 992.2 25.2Z" fill="hsl(270,85%,72%)" stroke="hsl(270,85%,72%)" stroke-width="1" opacity=".42"/><path d="M1010 160L992.2 25.2A136 136 0 0 1 1010.0 24.0Z" fill="hsl(285,85%,72%)" stroke="hsl(285,85%,72%)" stroke-width="1" opacity=".42"/><path d="M1010 160L1073.8 39.9A136 136 0 0 1 1101.0 58.9Z" fill="#fff" opacity="0.8"/><path d="M1010 160L946.2 280.1A136 136 0 0 1 919.0 261.1Z" fill="#fff" opacity="0.7"/><path d="M1010 160L1114.2 72.6A136 136 0 0 1 1122.7 83.9Z" fill="#fff" opacity="0.5"/><path d="M1010 160L905.8 247.4A136 136 0 0 1 897.3 236.1Z" fill="#fff" opacity="0.4"/><circle cx="1010" cy="160" r="70" fill="none" stroke="#fff" stroke-width="1.5" opacity=".35"/><circle cx="1010" cy="160" r="90" fill="none" stroke="#fff" stroke-width="1.5" opacity=".35"/><circle cx="1010" cy="160" r="110" fill="none" stroke="#fff" stroke-width="1.5" opacity=".35"/><circle cx="1010" cy="160" r="128" fill="none" stroke="#fff" stroke-width="1.5" opacity=".35"/><circle cx="1010" cy="160" r="135" fill="none" stroke="#e8ebf1" stroke-width="3"/><circle cx="1010" cy="160" r="50" fill="#0e1016" opacity=".25"/><circle cx="1010" cy="160" r="40" fill="#aeb5c3"/><circle cx="1010" cy="160" r="28" fill="#dfe3ea"/><circle cx="1010" cy="160" r="15" fill="#0e1016"/></svg>
